<?xml version="1.0" encoding="UTF-8"?>
<svg id="objects" xmlns="http://www.w3.org/2000/svg" viewBox="0 0 364.2 362.01">
  <defs>
    <style>
      .cls-1 {
        fill: #fff;
        stroke-width: 0px;
      }
    </style>
  </defs>
  <path class="cls-1" d="M0,177.48c1.67-7.89,6.59-13.61,12.14-19.14C61.92,108.7,111.61,58.98,161.27,9.22c8.09-8.1,17.31-11.37,28.4-7.6,16.04,5.44,21.94,26.03,11.31,39.18-1.41,1.75-2.95,3.4-4.54,4.99-43.99,44.02-88,88.04-132.02,132.03-.99.99-2.22,1.72-3.34,2.57-.08.51-.15,1.02-.23,1.53,1.2.77,2.58,1.36,3.56,2.34,44.29,44.23,88.52,88.52,132.81,132.75,7.86,7.85,11.18,16.82,7.77,27.76-5.01,16.04-25.58,22.56-38.91,12.28-1.87-1.44-3.61-3.07-5.29-4.74-49.55-49.53-99.06-99.11-148.66-148.58-5.54-5.52-10.54-11.2-12.14-19.13v-7.11Z"/>
  <path class="cls-1" d="M218.86,180.71c1.38,1.44,2.25,2.39,3.16,3.29,44.42,44.43,88.84,88.87,133.29,133.27,7.78,7.77,10.91,16.71,7.57,27.49-4.97,16.03-25.61,22.59-38.91,12.33-1.68-1.3-3.28-2.74-4.78-4.24-50.72-50.7-101.44-101.41-152.14-152.12-9.88-9.88-11.92-21.58-5.51-32.55,1.41-2.42,3.35-4.6,5.34-6.6,50.85-50.91,101.73-101.79,152.62-152.66,10.98-10.98,25.3-11.87,36.32-2.37,9.64,8.3,11.22,23.74,3.4,33.8-1.45,1.86-3.08,3.61-4.75,5.28-44.08,44.1-88.17,88.19-132.27,132.27-.92.92-1.99,1.69-3.33,2.82Z"/>
</svg>