<?xml version="1.0" encoding="UTF-8"?>
<svg id="Capa_1" data-name="Capa 1" xmlns="http://www.w3.org/2000/svg" viewBox="0 0 156.38 156.46">
  <defs>
    <style>
      .cls-1 {
        fill: #fff;
        fill-rule: evenodd;
        stroke-width: 0px;
      }
    </style>
  </defs>
  <path class="cls-1" d="M4.09,85.3h148.21v-6.49H4.09v6.49h0ZM154.34,89.39H2.04c-1.13,0-2.04-.91-2.04-2.04v-10.57c0-1.13.91-2.04,2.04-2.04h152.29c1.13,0,2.04.91,2.04,2.04v10.57c0,1.13-.92,2.04-2.04,2.04Z"/>
  <path class="cls-1" d="M135.24,78.81c-1.13,0-2.04-.91-2.04-2.04V23.39s-14.5,0-14.5,0c-.93,0-1.74-.63-1.98-1.52-1.79-6.8-8.27-10.89-13.4-13.12-6.89-3-15.82-4.66-25.13-4.65-9.31,0-18.24,1.65-25.13,4.66-5.12,2.23-11.61,6.32-13.4,13.12-.23.9-1.05,1.52-1.98,1.52h-14.5s0,53.38,0,53.38c0,1.13-.92,2.04-2.04,2.04s-2.04-.91-2.04-2.04V21.34c0-1.13.92-2.04,2.04-2.04h15.04C40.94,5.98,60.43,0,78.19,0c17.76,0,37.25,5.98,42.01,19.3h15.04c1.13,0,2.04.91,2.04,2.04v55.43c0,1.13-.92,2.04-2.04,2.04Z"/>
  <path class="cls-1" d="M125.03,78.81c-1.13,0-2.04-.91-2.04-2.04v-43.17s-12.17,0-12.17,0c-.93,0-1.74-.63-1.98-1.52-3.43-13.08-17.87-18.94-30.65-18.94-12.78,0-27.21,5.86-30.65,18.94-.23.9-1.05,1.52-1.98,1.52h-12.17s0,43.17,0,43.17c0,1.13-.91,2.04-2.04,2.04s-2.04-.91-2.04-2.04V31.56c0-1.13.92-2.04,2.04-2.04h12.69c2.06-6.24,6.43-11.43,12.71-15.07,6.01-3.48,13.62-5.39,21.44-5.39,7.82,0,15.43,1.91,21.44,5.39,6.29,3.64,10.66,8.83,12.72,15.07h12.68c1.13,0,2.04.91,2.04,2.04v45.21c0,1.13-.92,2.04-2.04,2.04Z"/>
  <path class="cls-1" d="M140.38,156.46h-30.39c-1.13,0-2.04-.91-2.04-2.04v-22.36c0-1.13.92-2.04,2.04-2.04,1.13,0,2.04.91,2.04,2.04v20.31h28.35c1.13,0,2.04.91,2.04,2.04s-.91,2.04-2.04,2.04Z"/>
  <path class="cls-1" d="M128.94,145.28h-7.5c-1.13,0-2.04-.91-2.04-2.04,0-1.13.92-2.04,2.04-2.04h7.5c1.13,0,2.04.91,2.04,2.04,0,1.13-.92,2.04-2.04,2.04Z"/>
  <path class="cls-1" d="M140.38,134.1h-30.39c-1.13,0-2.04-.91-2.04-2.04v-22.36c0-1.13.92-2.04,2.04-2.04,1.13,0,2.04.91,2.04,2.04v20.31h28.35c1.13,0,2.04.91,2.04,2.04s-.91,2.04-2.04,2.04Z"/>
  <path class="cls-1" d="M128.94,122.92h-7.5c-1.13,0-2.04-.91-2.04-2.04,0-1.13.92-2.04,2.04-2.04h7.5c1.13,0,2.04.91,2.04,2.04,0,1.13-.92,2.04-2.04,2.04Z"/>
  <path class="cls-1" d="M140.38,111.75h-30.39c-1.13,0-2.04-.91-2.04-2.04v-22.36c0-1.13.92-2.04,2.04-2.04,1.13,0,2.04.91,2.04,2.04v20.31h28.35c1.13,0,2.04.92,2.04,2.04s-.91,2.04-2.04,2.04Z"/>
  <path class="cls-1" d="M128.94,100.57h-7.5c-1.13,0-2.04-.91-2.04-2.04,0-1.13.92-2.04,2.04-2.04h7.5c1.13,0,2.04.91,2.04,2.04,0,1.13-.92,2.04-2.04,2.04Z"/>
  <path class="cls-1" d="M149.36,156.46h-8.97c-1.13,0-2.04-.91-2.04-2.04v-67.07c0-1.13.92-2.04,2.04-2.04,1.13,0,2.04.91,2.04,2.04v65.03h4.89v-65.03c0-1.13.91-2.04,2.04-2.04,1.13,0,2.04.91,2.04,2.04v67.07c0,1.13-.92,2.04-2.04,2.04Z"/>
  <path class="cls-1" d="M46.38,156.46H15.99c-1.13,0-2.04-.91-2.04-2.04,0-1.13.92-2.04,2.04-2.04h28.35v-20.31c0-1.13.91-2.04,2.04-2.04,1.13,0,2.04.91,2.04,2.04v22.36c0,1.13-.92,2.04-2.04,2.04Z"/>
  <path class="cls-1" d="M34.93,145.28h-7.5c-1.13,0-2.04-.91-2.04-2.04,0-1.13.92-2.04,2.04-2.04h7.5c1.13,0,2.04.91,2.04,2.04,0,1.13-.91,2.04-2.04,2.04Z"/>
  <path class="cls-1" d="M46.38,134.1H15.99c-1.13,0-2.04-.91-2.04-2.04,0-1.13.92-2.04,2.04-2.04h28.35v-20.31c0-1.13.91-2.04,2.04-2.04,1.13,0,2.04.91,2.04,2.04v22.36c0,1.13-.92,2.04-2.04,2.04Z"/>
  <path class="cls-1" d="M34.93,122.92h-7.5c-1.13,0-2.04-.91-2.04-2.04,0-1.13.92-2.04,2.04-2.04h7.5c1.13,0,2.04.91,2.04,2.04,0,1.13-.91,2.04-2.04,2.04Z"/>
  <path class="cls-1" d="M46.38,111.75H15.99c-1.13,0-2.04-.91-2.04-2.04,0-1.13.92-2.04,2.04-2.04h28.35v-20.31c0-1.13.91-2.04,2.04-2.04,1.13,0,2.04.91,2.04,2.04v22.36c0,1.13-.92,2.04-2.04,2.04Z"/>
  <path class="cls-1" d="M34.93,100.57h-7.5c-1.13,0-2.04-.91-2.04-2.04,0-1.13.92-2.04,2.04-2.04h7.5c1.13,0,2.04.91,2.04,2.04,0,1.13-.91,2.04-2.04,2.04Z"/>
  <path class="cls-1" d="M15.99,156.46H7.02c-1.13,0-2.04-.91-2.04-2.04v-67.07c0-1.13.92-2.04,2.04-2.04,1.13,0,2.04.91,2.04,2.04v65.03h4.89v-65.03c0-1.13.91-2.04,2.04-2.04,1.13,0,2.04.91,2.04,2.04v67.07c0,1.13-.92,2.04-2.04,2.04Z"/>
  <path class="cls-1" d="M70.31,46.4c-.52,0-1.04-.2-1.44-.6-.8-.8-.8-2.09,0-2.89l12.69-12.69c.8-.8,2.09-.8,2.89,0,.8.8.8,2.09,0,2.89l-12.69,12.69c-.4.4-.92.6-1.45.6Z"/>
  <path class="cls-1" d="M77.49,58.25c-.52,0-1.05-.2-1.45-.6-.79-.8-.79-2.09,0-2.89l8.58-8.58c.8-.8,2.09-.8,2.89,0,.8.8.79,2.09,0,2.89l-8.58,8.57c-.4.4-.92.6-1.44.6Z"/>
</svg>