<?xml version="1.0" encoding="UTF-8"?>
<svg id="Capa_1" data-name="Capa 1" xmlns="http://www.w3.org/2000/svg" viewBox="0 0 246.11 246.16">
  <defs>
    <style>
      .cls-1 {
        fill: #000;
        stroke-width: 0px;
      }
    </style>
  </defs>
  <path class="cls-1" d="M17.37,10.42c20.41,20.41,197.9,197.9,219.26,219.26,0-5.94.07-10.8-.04-15.66-.07-3.2.95-4.99,4.51-5.07,3.74-.08,5.04,1.71,5.02,5.16-.05,8.99-.07,17.98,0,26.97.03,3.6-1.65,5.11-5.18,5.08-9.15-.06-18.31-.03-27.47,0-3.12.01-4.53-1.55-4.61-4.59-.08-3.24,1.25-5.17,4.65-5.02,4.94.21,9.87.57,14.81.87.08-.57.15-1.14.23-1.71C208.28,215.44,30.93,38.09,9.74,16.9c-.02,5.35-.08,9.85-.04,14.36.02,3.29-.4,5.97-4.71,6.01C.43,37.32-.04,34.58,0,31.03.1,22.71.15,14.38,0,6.06-.06,1.92,1.36-.09,5.79,0c8.49.18,16.98.09,25.47.02,3.33-.03,5.96.42,6.05,4.68.1,4.63-2.75,5.02-6.26,4.84-4.47-.22-8.95-.34-13.43-.5-.09.46-.17.92-.26,1.37Z"/>
</svg>