<?xml version="1.0" encoding="UTF-8"?>
<svg id="Capa_1" data-name="Capa 1" xmlns="http://www.w3.org/2000/svg" viewBox="0 0 949 963.49">
  <defs>
    <style>
      .cls-1 {
        stroke-width: 44px;
      }

      .cls-1, .cls-2 {
        fill: none;
        stroke: #fff;
        stroke-miterlimit: 10;
      }

      .cls-2 {
        stroke-width: 24.18px;
      }

      .cls-3 {
        fill: #fff;
        stroke-width: 0px;
      }
    </style>
  </defs>
  <g>
    <path class="cls-3" d="M822.03,330.71v31.34c-1.92,5.71-6.64,6.72-12.06,6.34,0,2.16,0,3.68,0,5.19,0,40.9,0,81.79,0,122.69,0,1.53.03,3.06-.13,4.58-.42,4.11-3.02,6.72-7.12,7.21-1.36.16-2.74.18-4.38.29-.08,1.42-.2,2.66-.2,3.89-.02,6.12.07,12.23-.04,18.35-.12,6.55-3.18,9.54-9.69,9.58-8.28.05-16.56.06-24.84,0-6.26-.05-9.37-3.13-9.47-9.42-.1-6.11-.01-12.23-.03-18.35,0-1.34-.12-2.68-.19-4.02h-95.55c0,7.15.01,14.12,0,21.08-.02,7.92-2.86,10.72-10.87,10.72-68.67,0-137.34,0-206.01,0-8.12,0-10.82-2.68-10.82-10.74,0-123.32.01-246.65-.06-369.97,0-4.98,1.46-8.66,6.17-10.7h227.81c4.68,2.4,5.76,6.41,5.75,11.38-.1,53.11-.06,106.22-.06,159.33,0,1.61,0,3.22,0,5.06,2.09,0,3.61,0,5.13,0,45.34,0,90.68.05,136.02-.06,5.02-.01,8.66,1.48,10.64,6.23ZM446.84,164.91v275.13h95.25V164.91h-95.25ZM654.07,164.98h-95.49v358.94h55.33v-15.57c-9.69-.68-11.48-2.6-11.49-12.01,0-41.01,0-82.03,0-123.04,0-1.49,0-2.98,0-4.94-2.47,0-4.47.03-6.47,0-6.68-.12-9.46-2.9-9.5-9.62-.05-8.02-.03-16.05,0-24.07.03-7.4,2.75-10.12,10.17-10.13,17.7-.02,35.41,0,53.11,0,1.37,0,2.73,0,4.34,0v-159.56ZM793.69,492v-55.52h-175.04v55.52h175.04ZM793.73,420.12v-51.43h-175.05v51.43h175.05ZM446.86,523.92h95.3v-67.47h-95.3v67.47ZM805.79,340.79h-203.03v11.43h203.03v-11.43ZM642.05,523.96v-15.5h-11.56v15.5h11.56ZM770.26,523.86h11.63v-15.45h-11.63v15.45Z"/>
    <path class="cls-3" d="M526.23,276.68v31.63h-15.47v-31.63h15.47Z"/>
    <path class="cls-3" d="M590.18,276.81v31.46h-15.59v-31.46h15.59Z"/>
    <path class="cls-3" d="M717.81,468.16h-23.29v-15.56h23.29v15.56Z"/>
    <path class="cls-3" d="M717.85,400.16h-23.37v-15.54h23.37v15.54Z"/>
    <path class="cls-3" d="M482.86,480.5h23.33v15.52h-23.33v-15.52Z"/>
  </g>
  <circle class="cls-1" cx="597.85" cy="351.14" r="329.14"/>
  <rect class="cls-2" x="-4.99" y="719.49" width="349.56" height="148.43" rx="44.35" ry="44.35" transform="translate(-511.51 352.53) rotate(-45)"/>
  <rect class="cls-3" x="268.59" y="581.4" width="128.48" height="81.35" transform="translate(-342.39 417.55) rotate(-45)"/>
</svg>