<?xml version="1.0" encoding="UTF-8"?>
<svg id="Capa_1" data-name="Capa 1" xmlns="http://www.w3.org/2000/svg" viewBox="0 0 49.42 344.5">
  <defs>
    <style>
      .cls-1 {
        fill: #000;
        stroke-width: 0px;
      }
    </style>
  </defs>
  <path class="cls-1" d="M29.65,17.78v310.08c4.19-4.2,7.68-7.59,11.04-11.1,2.21-2.32,4.2-2.86,6.77-.4,2.7,2.59,2.36,4.77-.1,7.2-6.39,6.32-12.76,12.67-19.08,19.07-2.53,2.56-4.78,2.45-7.25-.06-6.43-6.52-12.92-12.97-19.42-19.42-2.22-2.2-2.11-4.29-.01-6.5,2.23-2.35,4.54-2.77,6.84-.26,3.34,3.64,6.57,7.39,9.85,11.09.46-.35.91-.7,1.37-1.05V16.97c-3.8,3.77-7.02,6.92-10.18,10.12-2.31,2.34-4.5,3.94-7.58.92-3.26-3.19-1.65-5.45.89-7.94C8.75,14.25,14.68,8.4,20.46,2.42c2.88-2.98,5.3-3.39,8.37-.19,5.87,6.13,11.94,12.07,18,18.03,2.38,2.34,3.92,4.51.97,7.59-3.21,3.35-5.49,1.61-7.85-1-3.01-3.32-6.09-6.57-9.14-9.85-.38.26-.77.53-1.15.79Z"/>
</svg>