<?xml version="1.0" encoding="UTF-8"?>
<svg id="Capa_1" data-name="Capa 1" xmlns="http://www.w3.org/2000/svg" viewBox="0 0 154.31 159.46">
  <defs>
    <style>
      .cls-1 {
        fill-rule: evenodd;
      }

      .cls-1, .cls-2 {
        fill: #fff;
        stroke-width: 0px;
      }

      .cls-3 {
        stroke-width: 3px;
      }

      .cls-3, .cls-4 {
        fill: none;
        stroke: #fff;
        stroke-miterlimit: 10;
      }

      .cls-4 {
        stroke-width: 2.68px;
      }
    </style>
  </defs>
  <rect class="cls-3" x="31.59" y="1.5" width="91.29" height="156.46" rx="8.38" ry="8.38"/>
  <rect class="cls-4" x="36.48" y="9.88" width="81.51" height="139.71" rx="7.48" ry="7.48"/>
  <circle class="cls-2" cx="146.57" cy="13.42" r="7.74"/>
  <circle class="cls-2" cx="146.57" cy="47.62" r="7.74"/>
  <circle class="cls-2" cx="146.57" cy="81.82" r="7.74"/>
  <circle class="cls-2" cx="146.57" cy="116.02" r="7.74"/>
  <circle class="cls-2" cx="146.57" cy="150.22" r="7.74"/>
  <circle class="cls-2" cx="7.74" cy="13.42" r="7.74"/>
  <circle class="cls-2" cx="7.74" cy="47.62" r="7.74"/>
  <circle class="cls-2" cx="7.74" cy="81.82" r="7.74"/>
  <circle class="cls-2" cx="7.74" cy="116.02" r="7.74"/>
  <circle class="cls-2" cx="7.74" cy="150.22" r="7.74"/>
  <path class="cls-1" d="M70.89,69.18c-.52,0-1.04-.2-1.44-.6-.8-.8-.8-2.09,0-2.89l12.69-12.69c.8-.8,2.09-.8,2.89,0,.8.8.8,2.09,0,2.89l-12.69,12.69c-.4.4-.92.6-1.45.6Z"/>
  <path class="cls-1" d="M72.95,85.68c-.52,0-1.05-.2-1.45-.6-.79-.8-.79-2.09,0-2.89l8.58-8.58c.8-.8,2.09-.8,2.89,0,.8.8.79,2.09,0,2.89l-8.58,8.57c-.4.4-.92.6-1.44.6Z"/>
</svg>