<?xml version="1.0" encoding="UTF-8"?>
<svg id="Capa_1" data-name="Capa 1" xmlns="http://www.w3.org/2000/svg" viewBox="0 0 214.87 391.29">
  <defs>
    <style>
      .cls-1 {
        fill: #8f7048;
        stroke-width: 0px;
      }
    </style>
  </defs>
  <path class="cls-1" d="M42.45,391.29c-5.95-2.08-12.38-3.33-17.77-6.41C8.29,375.54.1,360.92.06,342.07c-.11-56.94-.04-113.88-.04-170.82,0-13.3,5.27-24.11,15.34-32.76,10.14-8.72,20.04-17.71,30.27-26.33,2.61-2.2,2.78-3.97,1.84-7.06-8.78-28.78-5.68-55.89,12.51-80.43,24.02-32.41,68.83-32.92,93.82-1.29,12.23,15.48,17.89,33.19,18.14,52.76.07,5.64-3.99,10.03-9.2,10.18-5.55.16-9.86-3.96-10-10.25-.24-10.74-2.28-21.02-7.29-30.53-7.01-13.32-16.94-23.29-32.49-25.83-13.91-2.27-25.31,3.01-34.58,12.99-11.87,12.79-16.67,28.33-16.16,45.56.16,5.51,1.13,10.99,1.85,17.51,5.84-5.09,10.71-9.33,15.58-13.58,4.03-3.52,8-7.11,12.09-10.56,9.82-8.29,21.6-8.43,31.24-.04,26.04,22.65,52.01,45.4,77.92,68.2,9.53,8.39,13.96,19.16,13.95,31.84-.02,56.69.11,113.37-.06,170.06-.08,25.7-16.09,44.46-41.02,48.99-.47.09-.9.4-1.35.61H42.45ZM58.03,126.65c-9.62,8.42-18.94,16.91-28.63,24.94-7.23,5.99-10.32,13.19-10.28,22.62.21,55.02.1,110.04.11,165.06,0,1.4,0,2.8.08,4.2,1.09,16.98,12.68,28.47,29.68,28.55,38.97.2,77.95.22,116.92,0,17.28-.1,29.52-12.59,29.54-29.43.04-56.8-.03-113.61.06-170.41.01-7.65-2.59-13.83-8.33-18.84-25.41-22.21-50.81-44.43-76.15-66.72-2.78-2.45-4.91-2.24-7.59.15-9.59,8.57-19.31,16.99-29.01,25.44-.57.49-1.37.72-2.13,1.11,8.77,12.55,19.28,20.35,34.12,21.11,6.49.33,10.69,4.46,10.39,10.21-.28,5.5-4.74,9.08-11.13,8.94-9.08-.2-17.55-2.65-25.5-6.99-8.87-4.84-15.95-11.7-22.14-19.93Z"/>
  <path class="cls-1" d="M97.72,196.78c0-4-.06-7.55.01-11.11.14-6.55,4.11-10.87,9.83-10.79,5.53.08,9.3,4.33,9.45,10.76.08,3.55.01,7.1.01,11.33,5.19,0,10.09-.08,14.99.04,2,.05,4.15.15,5.94.92,4.26,1.81,6.35,6.25,5.46,10.65-.87,4.27-4.89,7.55-9.76,7.58-12.1.09-24.2-.04-36.29.06-9.36.08-15.59,7.72-13.68,16.53,1.29,5.97,6.36,10.17,12.95,10.39,8.52.29,17.06.1,25.56.64,13.67.86,26.42,14.01,28.16,27.51,2.59,20.06-12.44,36.73-31.18,37.46-.5.02-.99.13-2.16.3,0,3.98.12,8-.03,12.01-.2,5.44-3.54,9.37-8.21,9.96-5.84.74-10.53-3.25-10.99-9.47-.15-2.03-.05-4.07-.06-6.11,0-2.03,0-4.05,0-6.64-5.56,0-10.86.02-16.16,0-6.7-.03-11.03-3.72-11.11-9.42-.08-5.83,4.38-9.73,11.21-9.75,12.1-.03,24.2.08,36.29-.06,6.94-.08,12.35-4.91,13.29-11.39.98-6.76-2.73-12.99-9.14-14.87-2.15-.63-4.51-.68-6.79-.75-7.12-.19-14.27.04-21.37-.45-16.72-1.15-29.91-15.57-29.96-32.36-.05-16.67,13.3-31.22,29.88-32.58,1.12-.09,2.23-.22,3.86-.39Z"/>
</svg>