<?xml version="1.0" encoding="UTF-8"?>
<svg id="Capa_1" data-name="Capa 1" xmlns="http://www.w3.org/2000/svg" viewBox="0 0 344.5 49.42">
  <defs>
    <style>
      .cls-1 {
        fill: #000;
        stroke-width: 0px;
      }
    </style>
  </defs>
  <path class="cls-1" d="M326.72,29.65H16.64c4.2,4.19,7.59,7.68,11.1,11.04,2.32,2.21,2.86,4.2.4,6.77-2.59,2.7-4.77,2.36-7.2-.1-6.32-6.39-12.67-12.76-19.07-19.08-2.56-2.53-2.45-4.78.06-7.25C8.45,14.61,14.91,8.12,21.36,1.62c2.2-2.22,4.29-2.11,6.5-.01,2.35,2.23,2.77,4.54.26,6.84-3.64,3.34-7.39,6.57-11.09,9.85.35.46.7.91,1.05,1.37h309.44c-3.77-3.8-6.92-7.02-10.12-10.18-2.34-2.31-3.94-4.5-.92-7.58,3.19-3.26,5.45-1.65,7.94.89,5.82,5.95,11.67,11.88,17.66,17.66,2.98,2.88,3.39,5.3.19,8.37-6.13,5.87-12.07,11.94-18.03,18-2.34,2.38-4.51,3.92-7.59.97-3.35-3.21-1.61-5.49,1-7.85,3.32-3.01,6.57-6.09,9.85-9.14-.26-.38-.53-.77-.79-1.15Z"/>
</svg>