<?xml version="1.0" encoding="UTF-8"?>
<svg id="objects" xmlns="http://www.w3.org/2000/svg" xmlns:xlink="http://www.w3.org/1999/xlink" viewBox="0 0 291.51 228.62">
  <defs>
    <style>
      .cls-1 {
        fill: url(#Degradado_sin_nombre_46-2);
      }

      .cls-1, .cls-2, .cls-3, .cls-4, .cls-5 {
        stroke-width: 0px;
      }

      .cls-2 {
        fill: url(#Degradado_sin_nombre_46);
      }

      .cls-3 {
        fill: #000;
      }

      .cls-4 {
        fill: url(#Degradado_sin_nombre_46-3);
      }

      .cls-5 {
        fill: #fff;
      }
    </style>
    <linearGradient id="Degradado_sin_nombre_46" data-name="Degradado sin nombre 46" x1="89.97" y1="23.19" x2="215.34" y2="23.19" gradientUnits="userSpaceOnUse">
      <stop offset="0" stop-color="#b97915"/>
      <stop offset=".13" stop-color="#cf9d4a"/>
      <stop offset=".25" stop-color="#e0ba74"/>
      <stop offset=".36" stop-color="#edcf93"/>
      <stop offset=".45" stop-color="#f5dca6"/>
      <stop offset=".51" stop-color="#f8e1ad"/>
      <stop offset=".58" stop-color="#f4dba5"/>
      <stop offset=".67" stop-color="#ebcc92"/>
      <stop offset=".78" stop-color="#dcb472"/>
      <stop offset=".91" stop-color="#c79246"/>
      <stop offset="1" stop-color="#b57520"/>
    </linearGradient>
    <linearGradient id="Degradado_sin_nombre_46-2" data-name="Degradado sin nombre 46" x1="105.14" y1="85.17" x2="194.85" y2="85.17" xlink:href="#Degradado_sin_nombre_46"/>
    <linearGradient id="Degradado_sin_nombre_46-3" data-name="Degradado sin nombre 46" x1="0" y1="150.81" x2="291.51" y2="150.81" xlink:href="#Degradado_sin_nombre_46"/>
  </defs>
  <path class="cls-2" d="M201.05,6.36l-2.58,14.25c-1.56-.84-12.65-2.07-12.65-2.07l2.42-15.1-14.37-1.46-1.8,15.02c-4.69-.54-12.89-.77-12.89-.77l.08-16.25h-13.22l.08,16.25s-8.2.23-12.89.77l-1.8-15.02-14.37,1.46,2.42,15.1s-11.09,1.23-12.65,2.07l-2.58-14.25-14.29,2.02,7.29,38.01s20.2-6.54,55.4-6.74c35.2.2,55.4,6.74,55.4,6.74l7.29-38.01-14.29-2.02Z"/>
  <path class="cls-1" d="M194.85,49.84s-17.06-3.45-43.89-3.45-45.83,3.53-45.83,3.53v5.67h9.04l-3.07,68.36h79.7l-4.9-67.74,8.87-.5.07-5.86Z"/>
  <path class="cls-4" d="M236.48,73.43c25.97,14.02,42.21,33.98,42.21,56.13,0,42.41-59.49,76.79-132.88,76.79S12.93,171.97,12.93,129.56c0-22.38,16.57-42.52,43.01-56.56C21.88,88.94,0,113.73,0,141.57c0,48.08,65.26,87.06,145.76,87.06s145.76-38.98,145.76-87.06c0-27.6-21.5-52.19-55.04-68.14Z"/>
  <g>
    <path class="cls-5" d="M70.17,133.42l3.58,26,12.56-26h11.74l-6.49,37.48h-8.86l1.6-9.19,3.81-16.94-13.13,26.13h-5.84l-4.25-27.11-2.37,18.79-1.47,8.32h-8.8l6.49-37.48h11.43Z"/>
    <path class="cls-5" d="M112.65,170.91c-.24-.67-.36-1.51-.36-2.52-1.91,2.09-4.18,3.11-6.82,3.04-2.42-.03-4.43-.84-6.02-2.42-1.6-1.58-2.34-3.49-2.24-5.74.09-3.02,1.35-5.34,3.78-6.96,2.44-1.62,5.77-2.43,9.99-2.43l2.83.05.31-1.57.1-1.36c-.07-1.56-.85-2.37-2.34-2.42-1.85-.03-3,.99-3.42,3.06l-8.5.03c.09-1.87.7-3.5,1.83-4.88,1.13-1.38,2.67-2.45,4.62-3.19,1.95-.75,4.02-1.09,6.22-1.04,2.11.05,3.96.49,5.55,1.33,1.59.83,2.78,1.99,3.57,3.48.79,1.48,1.09,3.2.9,5.14l-2.08,13.1-.13,1.6c-.07,1.27.09,2.35.49,3.24l-.03.49h-8.24ZM107.81,165.29c1.73.07,3.25-.7,4.56-2.29l.85-4.48-2.19-.03c-1.36.03-2.52.43-3.5,1.2-.98.76-1.55,1.81-1.72,3.13-.09.7.05,1.28.4,1.74.35.46.89.7,1.61.73Z"/>
    <path class="cls-5" d="M125.73,156.93c.53-4.39,1.87-7.91,4.02-10.56,2.15-2.64,4.94-3.92,8.39-3.84,2.37.07,4.33,1.06,5.9,2.99l2.7-14.16h8.5l-6.85,39.54h-7.54l.36-3.01c-2.08,2.44-4.38,3.62-6.92,3.55-2.68-.03-4.78-1.03-6.29-2.97-1.52-1.95-2.33-4.56-2.43-7.84-.03-1.08,0-2.14.1-3.17l.08-.54ZM134.17,157.52c-.14,1.1-.2,2.06-.18,2.88,0,2.85.96,4.3,2.88,4.35,1.66.05,3.15-.75,4.45-2.39l1.91-10.68c-.57-1.58-1.7-2.39-3.4-2.45-1.58-.03-2.85.65-3.82,2.05-.97,1.4-1.58,3.48-1.84,6.24Z"/>
    <path class="cls-5" d="M167.2,171.42c-2.49-.02-4.71-.6-6.66-1.76-1.95-1.16-3.42-2.77-4.42-4.84-1-2.07-1.39-4.35-1.18-6.84l.08-.72c.46-4.58,2.06-8.21,4.78-10.88,2.72-2.67,6.05-3.95,10-3.85,2.39.03,4.43.64,6.13,1.82s2.94,2.8,3.73,4.87c.79,2.07,1.05,4.4.77,6.97l-.49,3.53h-16.58c.03,1.46.45,2.64,1.24,3.55.79.91,1.94,1.39,3.45,1.44,2.46.07,4.66-.88,6.62-2.83l3.55,4.7c-1.05,1.49-2.51,2.66-4.39,3.5-1.88.85-3.93,1.29-6.17,1.32h-.46ZM169.26,149.23c-1.2-.03-2.25.34-3.13,1.13s-1.65,2.1-2.3,3.94h8.47l.15-.74c.1-.6.12-1.16.05-1.69-.29-1.71-1.37-2.59-3.24-2.64Z"/>
    <path class="cls-5" d="M201.57,150.9c-.91-.14-1.79-.22-2.63-.26-2.54-.07-4.48.81-5.82,2.63l-3.14,17.64h-8.47l4.84-27.86,7.9-.03-.64,3.66c1.82-2.81,3.96-4.22,6.44-4.22.7,0,1.58.12,2.63.36l-1.11,8.08Z"/>
    <path class="cls-5" d="M216.04,170.91c-.24-.67-.36-1.51-.36-2.52-1.91,2.09-4.18,3.11-6.82,3.04-2.42-.03-4.43-.84-6.02-2.42-1.6-1.58-2.34-3.49-2.24-5.74.08-3.02,1.35-5.34,3.78-6.96,2.44-1.62,5.77-2.43,9.99-2.43l2.83.05.31-1.57.1-1.36c-.07-1.56-.85-2.37-2.34-2.42-1.85-.03-3,.99-3.42,3.06l-8.5.03c.09-1.87.7-3.5,1.83-4.88,1.13-1.38,2.67-2.45,4.62-3.19s4.02-1.09,6.22-1.04c2.11.05,3.96.49,5.55,1.33,1.59.83,2.78,1.99,3.57,3.48.79,1.48,1.09,3.2.9,5.14l-2.09,13.1-.13,1.6c-.07,1.27.09,2.35.49,3.24l-.03.49h-8.24ZM211.2,165.29c1.73.07,3.25-.7,4.56-2.29l.85-4.48-2.19-.03c-1.36.03-2.52.43-3.5,1.2-.98.76-1.55,1.81-1.72,3.13-.09.7.05,1.28.4,1.74.35.46.89.7,1.61.73Z"/>
    <path class="cls-5" d="M243.43,162.92c.22-1.13-.65-1.98-2.63-2.55l-1.83-.46c-2.99-.79-5.17-1.9-6.56-3.32-1.39-1.42-2.04-3.12-1.96-5.07.09-2.68,1.27-4.85,3.57-6.53,2.29-1.67,5.08-2.49,8.38-2.46,3.28.03,5.93.87,7.97,2.5,2.03,1.63,3.07,3.83,3.1,6.59l-8.44-.03c.07-2.2-.9-3.29-2.91-3.29-.86,0-1.66.25-2.39.76-.74.51-1.18,1.18-1.31,2.02-.29,1.39.94,2.34,3.68,2.86,2.39.57,4.23,1.22,5.54,1.97s2.3,1.67,2.99,2.77c.69,1.1,1,2.42.95,3.96-.05,1.68-.6,3.18-1.65,4.51-1.05,1.32-2.56,2.38-4.54,3.17-1.98.79-4.13,1.16-6.45,1.11-2.01-.02-3.88-.44-5.6-1.26s-3.07-1.94-4.04-3.36c-.97-1.42-1.47-3.04-1.51-4.88l7.88.05c.03,2.47,1.27,3.69,3.71,3.66,1.05,0,1.94-.24,2.68-.71.74-.47,1.2-1.14,1.39-2Z"/>
  </g>
  <path class="cls-3" d="M134.16,59.83h31.78v33.21s.1,15.84-15.22,17.78c-15.33,1.94-22.07-7.25-22.07-7.25l8.07-9.5s4.29,5.42,9.04,5.01,5.47-4.7,5.47-4.7v-23.09h-17.17l.1-11.44Z"/>
</svg>