<?xml version="1.0" encoding="UTF-8"?>
<svg id="objects" xmlns="http://www.w3.org/2000/svg" viewBox="0 0 509.69 92.91">
  <defs>
    <style>
      .cls-1 {
        fill: #f7d323;
        stroke-width: 0px;
      }
    </style>
  </defs>
  <polygon class="cls-1" points="48.84 0 61.25 34.28 97.69 35.49 68.92 57.88 79.03 92.91 48.84 72.47 18.66 92.91 28.76 57.88 0 35.49 36.43 34.28 48.84 0"/>
  <polygon class="cls-1" points="151.84 0 164.25 34.28 200.69 35.49 171.92 57.88 182.03 92.91 151.84 72.47 121.66 92.91 131.76 57.88 103 35.49 139.43 34.28 151.84 0"/>
  <polygon class="cls-1" points="254.84 0 267.25 34.28 303.69 35.49 274.92 57.88 285.03 92.91 254.84 72.47 224.66 92.91 234.76 57.88 206 35.49 242.43 34.28 254.84 0"/>
  <polygon class="cls-1" points="357.84 0 370.25 34.28 406.69 35.49 377.92 57.88 388.03 92.91 357.84 72.47 327.66 92.91 337.76 57.88 309 35.49 345.43 34.28 357.84 0"/>
  <polygon class="cls-1" points="460.84 0 473.25 34.28 509.69 35.49 480.92 57.88 491.03 92.91 460.84 72.47 430.66 92.91 440.76 57.88 412 35.49 448.43 34.28 460.84 0"/>
</svg>